<?xml version="1.0" encoding="UTF-8" standalone="no"?>
<!DOCTYPE svg PUBLIC "-//W3C//DTD SVG 1.1//EN" "http://www.w3.org/Graphics/SVG/1.1/DTD/svg11.dtd">
<svg width="100%" height="100%" viewBox="0 0 1920 1080" version="1.1" xmlns="http://www.w3.org/2000/svg" xmlns:xlink="http://www.w3.org/1999/xlink" xml:space="preserve" xmlns:serif="http://www.serif.com/" style="fill-rule:evenodd;clip-rule:evenodd;stroke-linejoin:round;stroke-miterlimit:2;">
    <g transform="matrix(2.72572,0,0,2.17535,-1906.97,4.76901)">
        <rect x="700.745" y="0" width="699.875" height="490.101" style="fill:rgb(232,243,249);fill-rule:nonzero;"/>
    </g>
    <g transform="matrix(2.72572,0,0,2.17535,-1906.97,4.76901)">
        <path d="M1317.62,349.5C1317.62,195.136 1192.48,70 1038.12,70C883.757,70 758.62,195.136 758.62,349.5" style="fill:rgb(238,245,249);fill-rule:nonzero;"/>
    </g>
    <g transform="matrix(2.72572,0,0,2.17535,-1906.97,4.76901)">
        <path d="M1226.41,339.393C1226.41,235.406 1142.11,151.107 1038.12,151.107C934.133,151.107 849.835,235.406 849.835,339.393" style="fill:rgb(244,248,250);fill-rule:nonzero;"/>
    </g>
    <g transform="matrix(2.72572,0,0,2.17535,-1906.97,4.76901)">
        <path d="M1164.62,349.5C1164.62,279.636 1107.98,223 1038.12,223C968.256,223 911.62,279.636 911.62,349.5C911.62,419.364 968.256,476 1038.12,476C1107.98,476 1164.62,419.364 1164.62,349.5Z" style="fill:white;fill-rule:nonzero;"/>
    </g>
    <g transform="matrix(2.72572,0,0,2.17535,-1906.97,4.76901)">
        <path d="M699.726,491.59L699.726,298L787.62,230L865.62,273L900.62,274L950.62,257L1024.62,328L1092.62,311L1166.62,331L1329.62,276L1400.62,289L1400.62,491.59L699.726,491.59Z" style="fill:rgb(234,244,249);fill-rule:nonzero;"/>
    </g>
    <g transform="matrix(2.72572,0,0,2.17535,-1906.97,4.76901)">
        <path d="M1172.28,491.1L1172.28,474.209C1172.28,442.54 1197.95,416.867 1229.62,416.867C1261.29,416.867 1286.96,442.54 1286.96,474.209L1286.96,491.1" style="fill:white;fill-rule:nonzero;"/>
    </g>
    <g transform="matrix(2.72572,0,0,2.17535,-1906.97,4.76901)">
        <path d="M1171.97,491.1L1171.97,484.161C1171.97,471.152 1181.08,460.606 1192.31,460.606C1203.55,460.606 1212.65,471.152 1212.65,484.161L1212.65,491.1" style="fill:rgb(222,232,237);fill-rule:nonzero;"/>
    </g>
    <g transform="matrix(2.72572,0,0,2.17535,-1906.97,4.76901)">
        <path d="M1154.28,491.1L1154.28,482.948C1154.28,467.663 1166.82,455.272 1182.29,455.272C1197.76,455.272 1210.3,467.663 1210.3,482.948L1210.3,491.1" style="fill:white;fill-rule:nonzero;"/>
    </g>
    <g transform="matrix(2.72572,0,0,2.17535,-1906.97,4.76901)">
        <path d="M1158.48,491.1L1158.48,484.161C1158.48,471.152 1167.59,460.606 1178.82,460.606C1190.05,460.606 1199.16,471.152 1199.16,484.161L1199.16,491.1" style="fill:rgb(222,232,237);fill-rule:nonzero;"/>
    </g>
    <g transform="matrix(2.72572,0,0,2.17535,-1906.97,4.76901)">
        <path d="M865.917,273L939.62,262L864.62,291L891.62,335L841.62,297L865.917,273Z" style="fill:rgb(219,234,241);fill-rule:nonzero;"/>
    </g>
    <g transform="matrix(2.72572,0,0,2.17535,-1906.97,4.76901)">
        <path d="M993.62,334L1096.62,376L1077.62,334L1092.62,311L993.62,334Z" style="fill:rgb(219,234,241);fill-rule:nonzero;"/>
    </g>
    <g transform="matrix(2.72572,0,0,2.17535,-1906.97,4.76901)">
        <path d="M1166.62,331L1264.62,343L1260.62,313L1309.62,315L1329.62,276L1166.62,331Z" style="fill:rgb(219,234,241);fill-rule:nonzero;"/>
    </g>
</svg>
