<?xml version="1.0" encoding="UTF-8" standalone="no"?>
<!DOCTYPE svg PUBLIC "-//W3C//DTD SVG 1.1//EN" "http://www.w3.org/Graphics/SVG/1.1/DTD/svg11.dtd">
<svg width="100%" height="100%" viewBox="0 0 1920 1080" version="1.1" xmlns="http://www.w3.org/2000/svg" xmlns:xlink="http://www.w3.org/1999/xlink" xml:space="preserve" xmlns:serif="http://www.serif.com/" style="fill-rule:evenodd;clip-rule:evenodd;stroke-linejoin:round;stroke-miterlimit:2;">
    <g transform="matrix(2.75587,0,0,2.22063,-1933.02,-1092.03)">
        <rect x="700.745" y="489.875" width="699.875" height="490.101" style="fill:rgb(249,170,143);fill-rule:nonzero;"/>
    </g>
    <g transform="matrix(2.75587,0,0,2.22063,-1933.02,-1092.03)">
        <path d="M1317.62,809.5C1317.62,655.136 1192.48,530 1038.12,530C883.757,530 758.62,655.136 758.62,809.5" style="fill:rgb(248,162,134);fill-rule:nonzero;"/>
    </g>
    <g transform="matrix(2.75587,0,0,2.22063,-1933.02,-1092.03)">
        <path d="M1238.41,811.393C1238.41,700.778 1148.73,611.107 1038.12,611.107C927.506,611.107 837.835,700.778 837.835,811.393" style="fill:rgb(247,152,126);fill-rule:nonzero;"/>
    </g>
    <g transform="matrix(2.75587,0,0,2.22063,-1933.02,-1092.03)">
        <path d="M1164.62,809.5C1164.62,739.636 1107.98,683 1038.12,683C968.256,683 911.62,739.636 911.62,809.5C911.62,879.364 968.256,936 1038.12,936C1107.98,936 1164.62,879.364 1164.62,809.5Z" style="fill:rgb(245,138,109);fill-rule:nonzero;"/>
    </g>
    <g transform="matrix(2.75587,0,0,2.22063,-1933.02,-1092.03)">
        <path d="M1400.62,698C1368.62,677.539 1210.62,737 1156.62,764C1117.43,783.596 986.771,857.166 917.62,853C834.62,848 699.726,795 699.726,795L699.726,956L1400.62,956L1400.62,698Z" style="fill:rgb(237,183,132);fill-rule:nonzero;"/>
    </g>
    <g transform="matrix(2.75587,0,0,2.22063,-1933.02,-1092.03)">
        <path d="M1400.62,846C1375.62,842 1285.03,824.897 1192.62,848C1116.62,867 1033.04,935.333 900.62,920C805.62,909 699.725,905 699.725,905L699.725,980L1400.62,980L1400.62,846Z" style="fill:rgb(252,194,140);fill-rule:nonzero;"/>
    </g>
    <g transform="matrix(2.75587,0,0,2.22063,-1933.02,-1092.03)">
        <path d="M699.726,905L699.726,630C699.726,630 782.62,660.8 787.62,662.8C792.62,664.8 821.62,715 827.62,717C833.62,719 871.62,722 873.62,726C875.62,730 892.62,754 896.62,754C900.62,754 969.62,762 973.62,762C977.62,762 1031.62,831 1059.62,846C1077.36,855.503 958.62,888 955.62,891C952.62,894 815.62,915 807.62,915C799.62,915 699.726,905 699.726,905Z" style="fill:rgb(249,211,170);fill-rule:nonzero;"/>
    </g>
    <g transform="matrix(2.75587,0,0,2.22063,-1933.02,-1092.03)">
        <path d="M896.62,754L883.62,801L973.62,762L896.62,754Z" style="fill:rgb(248,203,160);fill-rule:nonzero;"/>
    </g>
    <g transform="matrix(2.75587,0,0,2.22063,-1933.02,-1092.03)">
        <path d="M808.403,720.602L793.62,744L760.62,726L808.403,720.602Z" style="fill:rgb(248,203,160);fill-rule:nonzero;"/>
    </g>
    <g transform="matrix(2.75587,0,0,2.22063,-1933.02,-1092.03)">
        <path d="M859.492,772.561L834.275,783.921L820.308,760.962L859.492,772.561Z" style="fill:rgb(248,203,160);fill-rule:nonzero;"/>
    </g>
    <g transform="matrix(2.75587,0,0,2.22063,-1933.02,-1092.03)">
        <path d="M791.62,663.3L748.093,684L699.725,665L699.725,630C699.725,630 789.642,660.3 791.62,663.3Z" style="fill:rgb(248,203,160);fill-rule:nonzero;"/>
    </g>
    <g transform="matrix(2.75587,0,0,2.22063,-1933.02,-1092.03)">
        <path d="M699.726,898C740.725,912 801.62,878 801.62,878L819.62,899L861.62,871L906.62,880L955.62,891C955.62,891 890.62,912 890.62,917C890.62,932.454 756.014,950.041 699.726,939L699.726,898Z" style="fill:rgb(252,194,140);fill-rule:nonzero;"/>
    </g>
    <g transform="matrix(2.75587,0,0,2.22063,-1933.02,-1092.03)">
        <path d="M1152.62,869L1191.62,836L1234.62,845L1242.62,883L1152.62,869Z" style="fill:rgb(249,211,170);fill-rule:nonzero;"/>
    </g>
    <g transform="matrix(2.75587,0,0,2.22063,-1933.02,-1092.03)">
        <path d="M1152.62,869L1191.62,836L1181.62,817L1152.62,869Z" style="fill:rgb(248,214,183);fill-rule:nonzero;"/>
    </g>
    <g transform="matrix(2.75587,0,0,2.22063,-1933.02,-1092.03)">
        <path d="M1265.62,873L1252.62,839L1234.62,845L1242.62,883L1265.62,873Z" style="fill:rgb(237,183,132);fill-rule:nonzero;"/>
    </g>
    <g transform="matrix(2.75587,0,0,2.22063,-1933.02,-1092.03)">
        <path d="M1181.62,817L1191.62,836L1234.62,845L1252.62,839L1181.62,817Z" style="fill:rgb(249,219,192);fill-rule:nonzero;"/>
    </g>
</svg>
