<?xml version="1.0" encoding="UTF-8" standalone="no"?>
<!DOCTYPE svg PUBLIC "-//W3C//DTD SVG 1.1//EN" "http://www.w3.org/Graphics/SVG/1.1/DTD/svg11.dtd">
<svg width="100%" height="100%" viewBox="0 0 500 500" version="1.1" xmlns="http://www.w3.org/2000/svg" xmlns:xlink="http://www.w3.org/1999/xlink" xml:space="preserve" xmlns:serif="http://www.serif.com/" style="fill-rule:evenodd;clip-rule:evenodd;stroke-linejoin:round;stroke-miterlimit:2;">
    <g transform="matrix(2.46379,0,0,2.46158,-1431.35,-170.517)">
        <path d="M754.465,272.053L610.121,272.053C528.802,294.537 580.793,258.922 580.793,242.725L580.793,98.382C580.793,82.184 545.82,45.435 610.121,69.054L754.465,69.054C770.662,69.054 796.954,34.491 783.793,98.382L783.793,242.725C783.793,258.922 858.021,276.141 754.465,272.053Z" style="fill:rgb(39,170,225);fill-rule:nonzero;"/>
    </g>
    <g transform="matrix(2.46379,0,0,2.46158,-1431.35,-170.517)">
        <path d="M760.039,145.39L748.973,145.39C748.672,143.3 748.145,141.29 747.379,139.392L756.95,133.867C758.709,132.851 759.312,130.6 758.298,128.842C757.277,127.082 755.027,126.477 753.273,127.494L743.693,133.026C742.408,131.395 740.938,129.92 739.307,128.641L744.836,119.06C745.854,117.301 745.249,115.052 743.492,114.036C741.723,113.017 739.479,113.624 738.468,115.384L732.94,124.958C731.044,124.194 729.037,123.663 726.949,123.367L726.949,112.297C726.949,110.265 725.305,108.621 723.271,108.621C721.244,108.621 719.595,110.265 719.595,112.297L719.595,123.367C717.51,123.664 715.497,124.196 713.599,124.961L708.07,115.385C707.055,113.626 704.799,113.023 703.046,114.036C701.287,115.055 700.684,117.303 701.698,119.062L707.233,128.647C706.659,129.099 706.129,129.605 705.595,130.1C714.245,137.402 719.923,148.122 720.43,160.176C728.021,160.836 734.929,163.848 740.488,168.437C741.643,167.41 742.734,166.318 743.689,165.101L753.277,170.636C753.854,170.973 754.486,171.132 755.111,171.132C756.384,171.132 757.619,170.473 758.302,169.292C759.315,167.531 758.712,165.284 756.955,164.268L747.377,158.738C748.145,156.844 748.672,154.832 748.97,152.742L760.039,152.742C762.067,152.742 763.717,151.098 763.717,149.064C763.717,147.037 762.067,145.39 760.039,145.39Z" style="fill:rgb(247,207,71);fill-rule:nonzero;"/>
    </g>
    <g transform="matrix(2.46379,0,0,2.46158,-1431.35,-170.517)">
        <path d="M717.239,167.078C715.79,167.078 714.366,167.186 712.961,167.411C713.254,165.631 713.434,163.833 713.434,161.96C713.434,142.811 697.915,127.271 678.749,127.271C660.11,127.271 644.935,142.02 644.148,160.486C626.753,161.371 612.936,175.701 612.936,193.307C612.936,211.494 627.667,226.223 645.86,226.223L717.239,226.223C733.567,226.223 746.817,212.982 746.817,196.646C746.817,180.318 733.567,167.078 717.239,167.078Z" style="fill:white;fill-rule:nonzero;"/>
    </g>
</svg>
