<?xml version="1.0" encoding="UTF-8" standalone="no"?>
<!DOCTYPE svg PUBLIC "-//W3C//DTD SVG 1.1//EN" "http://www.w3.org/Graphics/SVG/1.1/DTD/svg11.dtd">
<svg width="100%" height="100%" viewBox="0 0 500 500" version="1.1" xmlns="http://www.w3.org/2000/svg" xmlns:xlink="http://www.w3.org/1999/xlink" xml:space="preserve" xmlns:serif="http://www.serif.com/" style="fill-rule:evenodd;clip-rule:evenodd;stroke-linejoin:round;stroke-miterlimit:2;">
    <g transform="matrix(2.59028,0,0,2.50922,-2217.19,-1144.17)">
        <path d="M1023.05,657.771L878.708,657.771C862.511,657.771 828.613,711.523 849.38,628.443L849.38,484.1C849.38,467.901 810.539,440.047 878.708,454.771L1023.05,454.771C1039.25,454.771 1077.89,433.152 1052.38,484.1L1052.38,628.443C1052.38,644.641 1082.86,679.857 1023.05,657.771Z" style="fill:rgb(39,170,225);fill-rule:nonzero;"/>
    </g>
    <g transform="matrix(2.45365,0,0,2.46472,-2083.31,-1124.1)">
        <path d="M1018.36,532.751C1017.68,532.361 1017,532.034 1016.28,531.76C1016.9,531.017 1017.46,530.228 1017.96,529.364C1023.08,520.488 1020.05,509.139 1011.17,504.01C1002.54,499.022 991.551,501.796 986.248,510.14C980.191,507.045 973.124,507.815 967.904,511.607C977.796,519.027 984.39,530.62 984.947,543.762C997.302,544.825 1007.81,551.834 1013.76,561.868C1017.97,560.96 1021.82,558.396 1024.15,554.363C1028.52,546.798 1025.92,537.117 1018.36,532.751Z" style="fill:white;fill-rule:nonzero;"/>
    </g>
    <g transform="matrix(2.45365,0,0,2.46472,-2083.31,-1124.1)">
        <path d="M981.698,550.783C980.223,550.783 978.772,550.896 977.342,551.127C977.638,549.317 977.82,547.485 977.82,545.577C977.82,526.079 962.018,510.256 942.503,510.256C923.524,510.256 908.075,525.271 907.272,544.074C889.56,544.979 875.489,559.567 875.489,577.496C875.489,596.017 890.492,611.015 909.013,611.015L981.698,611.015C998.322,611.015 1011.82,597.528 1011.82,580.894C1011.82,564.27 998.322,550.783 981.698,550.783Z" style="fill:white;fill-rule:nonzero;"/>
    </g>
</svg>
