<?xml version="1.0" encoding="UTF-8" standalone="no"?>
<!DOCTYPE svg PUBLIC "-//W3C//DTD SVG 1.1//EN" "http://www.w3.org/Graphics/SVG/1.1/DTD/svg11.dtd">
<svg width="100%" height="100%" viewBox="0 0 500 500" version="1.1" xmlns="http://www.w3.org/2000/svg" xmlns:xlink="http://www.w3.org/1999/xlink" xml:space="preserve" xmlns:serif="http://www.serif.com/" style="fill-rule:evenodd;clip-rule:evenodd;stroke-linejoin:round;stroke-miterlimit:2;">
    <g transform="matrix(2.47773,0,0,2.46156,-1441.36,-1119.09)">
        <path d="M754.465,657.771L610.121,657.771C540.997,675.94 580.793,644.641 580.793,628.443L580.793,484.127C580.793,484.109 580.791,484.091 580.787,484.074C568.527,430.481 593.927,454.771 610.121,454.771L753.463,454.771C754.123,454.771 754.778,454.662 755.402,454.448C805.411,437.313 783.793,468.001 783.793,484.1L783.793,628.279C783.793,628.387 783.811,628.495 783.847,628.598C801.54,679.118 770.646,657.771 754.465,657.771Z" style="fill:rgb(77,78,78);fill-rule:nonzero;"/>
    </g>
    <g transform="matrix(2.47773,0,0,2.46156,-1441.36,-1119.09)">
        <path d="M741.692,578.848C723.218,578.818 706.034,568.913 696.849,553.005C687.649,537.075 687.665,517.242 696.879,501.249C698.034,499.245 697.934,496.774 696.776,494.772C695.618,492.771 693.387,491.542 691.073,491.542C679.771,491.542 668.632,494.512 658.857,500.143C627.935,518.01 617.306,557.697 635.158,588.609C646.685,608.59 668.201,621.001 691.311,621.001L691.313,621.001C702.612,621.001 713.782,618.002 723.623,612.325C733.421,606.657 741.606,598.435 747.296,588.549C748.445,586.545 748.444,584.082 747.29,582.084C746.135,580.086 744.005,578.851 741.692,578.848Z" style="fill:rgb(128,191,206);fill-rule:nonzero;"/>
    </g>
</svg>
