<?xml version="1.0" encoding="UTF-8" standalone="no"?>
<!DOCTYPE svg PUBLIC "-//W3C//DTD SVG 1.1//EN" "http://www.w3.org/Graphics/SVG/1.1/DTD/svg11.dtd">
<svg width="100%" height="100%" viewBox="0 0 500 500" version="1.1" xmlns="http://www.w3.org/2000/svg" xmlns:xlink="http://www.w3.org/1999/xlink" xml:space="preserve" xmlns:serif="http://www.serif.com/" style="fill-rule:evenodd;clip-rule:evenodd;stroke-linejoin:round;stroke-miterlimit:2;">
    <g transform="matrix(2.47394,0,0,2.46857,-2102.79,-170.046)">
        <path d="M1023.05,272.053L878.708,272.053C778.712,298.372 849.38,258.922 849.38,242.725L849.38,98.382C813.836,40.159 862.511,69.054 878.708,69.054L1023.05,69.054C1039.25,69.054 1063.91,41.43 1052.38,98.382L1052.38,242.725C1061.09,294.252 1039.25,272.053 1023.05,272.053Z" style="fill:rgb(77,78,78);fill-rule:nonzero;"/>
    </g>
    <g transform="matrix(2.47394,0,0,2.50969,-2102.79,-172.591)">
        <path d="M1027.49,130.687L1016.64,130.687C1016.35,128.64 1015.83,126.67 1015.08,124.812L1024.46,119.396C1026.18,118.4 1026.77,116.194 1025.78,114.472C1024.78,112.747 1022.58,112.155 1020.86,113.151L1011.47,118.572C1010.21,116.973 1008.77,115.529 1007.17,114.275L1012.59,104.886C1013.58,103.163 1012.99,100.959 1011.27,99.963C1009.54,98.963 1007.34,99.56 1006.35,101.283L1000.93,110.666C999.073,109.918 997.105,109.396 995.06,109.105L995.06,98.259C995.06,96.268 993.448,94.656 991.455,94.656C989.468,94.656 987.853,96.268 987.853,98.259L987.853,109.105C985.808,109.398 983.836,109.92 981.978,110.669L976.559,101.285C975.564,99.561 973.353,98.97 971.635,99.963C969.913,100.961 969.321,103.165 970.314,104.887L975.737,114.28C975.175,114.725 974.656,115.219 974.133,115.705C982.611,122.862 988.174,133.365 988.671,145.177C996.11,145.824 1002.88,148.777 1008.33,153.272C1009.46,152.267 1010.53,151.197 1011.46,150.005L1020.86,155.429C1021.43,155.758 1022.04,155.913 1022.66,155.913C1023.9,155.913 1025.11,155.269 1025.78,154.112C1026.78,152.386 1026.19,150.184 1024.46,149.188L1015.08,143.769C1015.83,141.912 1016.35,139.94 1016.64,137.894L1027.49,137.894C1029.47,137.894 1031.09,136.282 1031.09,134.29C1031.09,132.302 1029.47,130.687 1027.49,130.687Z" style="fill:rgb(247,207,71);fill-rule:nonzero;"/>
    </g>
    <g transform="matrix(2.47394,0,0,2.50969,-2102.79,-172.591)">
        <path d="M985.543,151.941C984.124,151.941 982.73,152.047 981.352,152.268C981.639,150.524 981.815,148.762 981.815,146.926C981.815,128.161 966.608,112.934 947.824,112.934C929.56,112.934 914.689,127.385 913.919,145.481C896.87,146.349 883.33,160.393 883.33,177.646C883.33,195.467 897.768,209.902 915.596,209.902L985.543,209.902C1001.54,209.902 1014.53,196.927 1014.53,180.917C1014.53,164.917 1001.54,151.941 985.543,151.941Z" style="fill:white;fill-rule:nonzero;"/>
    </g>
    <g transform="matrix(2.47394,0,0,2.50969,-2102.79,-172.591)">
        <path d="M921.456,216.086C919.021,215.339 916.434,216.698 915.679,219.133L909.392,239.452C908.637,241.888 910,244.475 912.438,245.229C912.891,245.369 913.353,245.437 913.804,245.437C915.773,245.437 917.602,244.162 918.215,242.182L924.502,221.865C925.257,219.428 923.893,216.841 921.456,216.086Z" style="fill:rgb(93,196,215);fill-rule:nonzero;"/>
    </g>
    <g transform="matrix(2.47394,0,0,2.50969,-2102.79,-172.591)">
        <path d="M949.745,216.086C947.317,215.339 944.723,216.698 943.969,219.133L937.681,239.452C936.927,241.888 938.289,244.475 940.728,245.229C941.181,245.369 941.642,245.437 942.094,245.437C944.063,245.437 945.891,244.162 946.504,242.182L952.792,221.865C953.546,219.428 952.182,216.841 949.745,216.086Z" style="fill:rgb(93,196,215);fill-rule:nonzero;"/>
    </g>
    <g transform="matrix(2.47394,0,0,2.50969,-2102.79,-172.591)">
        <path d="M978.035,216.086C975.605,215.339 973.012,216.698 972.258,219.133L965.971,239.452C965.216,241.888 966.579,244.475 969.017,245.229C969.47,245.369 969.932,245.437 970.383,245.437C972.353,245.437 974.181,244.162 974.794,242.182L981.081,221.865C981.835,219.428 980.471,216.841 978.035,216.086Z" style="fill:rgb(93,196,215);fill-rule:nonzero;"/>
    </g>
</svg>
