<?xml version="1.0" encoding="UTF-8" standalone="no"?>
<!DOCTYPE svg PUBLIC "-//W3C//DTD SVG 1.1//EN" "http://www.w3.org/Graphics/SVG/1.1/DTD/svg11.dtd">
<svg width="100%" height="100%" viewBox="0 0 500 500" version="1.1" xmlns="http://www.w3.org/2000/svg" xmlns:xlink="http://www.w3.org/1999/xlink" xml:space="preserve" xmlns:serif="http://www.serif.com/" style="fill-rule:evenodd;clip-rule:evenodd;stroke-linejoin:round;stroke-miterlimit:2;">
    <g transform="matrix(2.46795,0,0,2.46779,-108.92,-1123.48)">
        <path d="M217.292,657.771L59.026,679.481C42.829,679.481 13.827,673.313 43.62,628.443L43.62,484.1C17.587,398.328 56.751,454.771 72.948,454.771L217.292,454.771C280.372,441.792 246.621,467.901 246.621,484.1L246.621,628.443C246.621,644.641 283.75,675.469 217.292,657.771Z" style="fill:rgb(77,78,78);fill-rule:nonzero;"/>
    </g>
    <g transform="matrix(2.46795,0,0,2.46779,-108.92,-1123.48)">
        <path d="M111.874,601.194C109.348,600.412 106.66,601.826 105.875,604.359L99.346,625.455C98.563,627.983 99.98,630.67 102.511,631.452C102.982,631.597 103.46,631.662 103.929,631.662C105.976,631.662 107.872,630.347 108.509,628.285L115.039,607.192C115.821,604.66 114.403,601.977 111.874,601.194Z" style="fill:rgb(93,196,215);fill-rule:nonzero;"/>
    </g>
    <g transform="matrix(2.46795,0,0,2.46779,-108.92,-1123.48)">
        <path d="M141.249,601.194C138.719,600.412 136.031,601.826 135.249,604.359L128.72,625.455C127.938,627.983 129.353,630.67 131.883,631.452C132.354,631.597 132.833,631.662 133.303,631.662C135.349,631.662 137.247,630.347 137.881,628.285L144.411,607.192C145.193,604.66 143.776,601.977 141.249,601.194Z" style="fill:rgb(93,196,215);fill-rule:nonzero;"/>
    </g>
    <g transform="matrix(2.46795,0,0,2.46779,-108.92,-1123.48)">
        <path d="M170.623,601.194C168.1,600.412 165.403,601.826 164.623,604.359L158.095,625.455C157.31,627.983 158.725,630.67 161.257,631.452C161.728,631.597 162.207,631.662 162.676,631.662C164.721,631.662 166.619,630.347 167.255,628.285L173.784,607.192C174.567,604.66 173.152,601.977 170.623,601.194Z" style="fill:rgb(93,196,215);fill-rule:nonzero;"/>
    </g>
    <g transform="matrix(2.46795,0,0,2.46779,-108.92,-1123.48)">
        <path d="M210.464,519.849C202.22,519.836 194.552,515.419 190.448,508.317C186.342,501.207 186.352,492.353 190.463,485.216C190.979,484.319 190.936,483.214 190.417,482.324C189.9,481.427 188.904,480.881 187.874,480.881C182.826,480.881 177.855,482.206 173.494,484.723C169.24,487.177 165.857,490.563 163.431,494.47C174.412,501.81 181.903,513.985 182.779,527.94C189.701,528.703 196.06,531.337 201.379,535.294C201.714,535.123 202.07,534.986 202.4,534.796C206.775,532.264 210.428,528.595 212.966,524.182C213.479,523.281 213.479,522.185 212.964,521.299C212.449,520.401 211.497,519.854 210.464,519.849Z" style="fill:rgb(128,191,206);fill-rule:nonzero;"/>
    </g>
    <g transform="matrix(2.46795,0,0,2.46779,-108.92,-1123.48)">
        <path d="M178.551,535.898C177.072,535.898 175.622,536.01 174.186,536.242C174.485,534.427 174.672,532.594 174.672,530.687C174.672,511.161 158.851,495.321 139.313,495.321C120.312,495.321 104.842,510.356 104.044,529.178C86.312,530.084 72.223,544.694 72.223,562.639C72.223,581.179 87.243,596.188 105.786,596.188L178.551,596.188C195.196,596.188 208.702,582.7 208.702,566.038C208.702,549.396 195.196,535.898 178.551,535.898Z" style="fill:white;fill-rule:nonzero;"/>
    </g>
</svg>
