<?xml version="1.0" encoding="UTF-8" standalone="no"?>
<!DOCTYPE svg PUBLIC "-//W3C//DTD SVG 1.1//EN" "http://www.w3.org/Graphics/SVG/1.1/DTD/svg11.dtd">
<svg width="100%" height="100%" viewBox="0 0 500 500" version="1.1" xmlns="http://www.w3.org/2000/svg" xmlns:xlink="http://www.w3.org/1999/xlink" xml:space="preserve" xmlns:serif="http://www.serif.com/" style="fill-rule:evenodd;clip-rule:evenodd;stroke-linejoin:round;stroke-miterlimit:2;">
    <g transform="matrix(2.46002,0,0,2.46042,427.617,-0.129191)">
        <path d="M0,203L-144.344,203C-160.541,203 -195.084,211.277 -195.084,195.08L-173.672,29.328C-223.214,-20.206 -160.541,0 -144.344,0L29.561,-29.556C45.759,-29.556 29.328,13.131 29.328,29.328L53.456,197.796C53.456,213.993 16.198,203 0,203" style="fill:rgb(41,171,226);fill-rule:nonzero;"/>
    </g>
    <g transform="matrix(2.46002,0,0,2.46042,405.242,263.868)">
        <path d="M0,-12.61L-18.983,-12.61C-19.498,-16.197 -20.406,-19.643 -21.72,-22.902L-5.299,-32.379C-2.284,-34.124 -1.254,-37.977 -2.989,-40.996C-4.737,-44.016 -8.596,-45.052 -11.605,-43.304L-28.04,-33.818C-30.238,-36.613 -32.766,-39.144 -35.567,-41.339L-26.078,-57.777C-24.336,-60.792 -25.376,-64.648 -28.387,-66.393C-31.42,-68.144 -35.272,-67.098 -37.003,-64.085L-46.483,-47.657C-49.735,-48.969 -53.181,-49.877 -56.761,-50.386L-56.761,-69.377C-56.761,-72.857 -59.58,-75.685 -63.069,-75.685C-66.548,-75.685 -69.375,-72.857 -69.375,-69.377L-69.375,-50.386C-72.958,-49.874 -76.408,-48.966 -79.663,-47.651L-89.146,-64.082C-90.887,-67.096 -94.76,-68.129 -97.762,-66.39C-100.776,-64.645 -101.814,-60.789 -100.072,-57.774L-90.58,-41.332C-93.377,-39.126 -95.895,-36.605 -98.101,-33.811L-114.548,-43.301C-117.573,-45.052 -121.418,-44.004 -123.164,-40.993C-124.898,-37.971 -123.868,-34.115 -120.854,-32.376L-104.419,-22.89C-105.733,-19.637 -106.641,-16.191 -107.146,-12.607L-126.152,-12.607C-129.634,-12.607 -132.46,-9.781 -132.46,-6.301C-132.46,-2.82 -129.634,0.006 -126.152,0.006L-107.143,0.006C-106.638,3.587 -105.723,7.031 -104.416,10.283L-120.854,19.772C-123.868,21.517 -124.898,25.376 -123.164,28.388C-121.995,30.413 -119.871,31.545 -117.692,31.545C-116.621,31.545 -115.534,31.274 -114.548,30.697L-98.096,21.201C-95.89,23.996 -93.371,26.513 -90.578,28.716L-100.075,45.171C-101.817,48.185 -100.776,52.041 -97.765,53.786C-96.768,54.355 -95.684,54.627 -94.621,54.627C-92.435,54.627 -90.318,53.502 -89.149,51.478L-79.663,35.04C-76.408,36.356 -72.958,37.264 -69.375,37.776L-69.375,56.767C-69.375,60.249 -66.548,63.075 -63.069,63.075C-59.58,63.075 -56.761,60.249 -56.761,56.767L-56.761,37.776C-53.181,37.264 -49.734,36.356 -46.482,35.045L-36.997,51.475C-35.83,53.499 -33.713,54.625 -31.525,54.625C-30.462,54.625 -29.377,54.354 -28.381,53.783C-25.359,52.038 -24.33,48.182 -26.073,45.167L-35.564,28.725C-32.769,26.519 -30.241,24 -28.046,21.205L-11.6,30.697C-10.609,31.274 -9.525,31.545 -8.456,31.545C-6.276,31.545 -4.151,30.413 -2.983,28.388C-1.241,25.367 -2.278,21.517 -5.293,19.772L-21.722,10.289C-20.406,7.033 -19.498,3.587 -18.986,0.003L0,0.003C3.481,0.003 6.307,-2.823 6.307,-6.304C6.307,-9.784 3.481,-12.61 0,-12.61" style="fill:rgb(247,207,71);fill-rule:nonzero;"/>
    </g>
</svg>
