<?xml version="1.0" encoding="UTF-8" standalone="no"?>
<!DOCTYPE svg PUBLIC "-//W3C//DTD SVG 1.1//EN" "http://www.w3.org/Graphics/SVG/1.1/DTD/svg11.dtd">
<svg width="100%" height="100%" viewBox="0 0 500 500" version="1.1" xmlns="http://www.w3.org/2000/svg" xmlns:xlink="http://www.w3.org/1999/xlink" xml:space="preserve" xmlns:serif="http://www.serif.com/" style="fill-rule:evenodd;clip-rule:evenodd;stroke-linejoin:round;stroke-miterlimit:2;">
    <g transform="matrix(2.46312,0,0,2.47036,-769.156,-172.281)">
        <path d="M522.783,278.351L300.973,272.716C284.775,272.716 312.207,258.922 312.207,242.725L312.207,98.382C312.207,82.338 274.858,65.727 289.886,65.412C290.035,65.409 290.185,65.409 290.334,65.412C290.374,65.408 538.077,70.049 538.077,70.049C554.274,70.049 515.206,82.184 515.206,98.382L515.206,242.725C515.206,258.922 538.98,278.351 522.783,278.351Z" style="fill:rgb(77,78,78);fill-rule:nonzero;"/>
    </g>
    <g transform="matrix(2.46312,0,0,2.50123,-769.156,-174.413)">
        <path d="M419.447,169.5L394.034,169.5C390.041,169.5 388.386,166.659 390.358,163.187L408.602,131.039C410.573,127.566 408.92,124.725 404.925,124.725L381.932,124.725C377.939,124.725 373.603,127.813 372.296,131.587L355.264,180.791C353.958,184.564 356.155,187.653 360.15,187.653L378.301,187.653C382.296,187.653 384.253,190.647 382.652,194.306L363.061,239.087C361.46,242.746 362.297,243.278 364.925,240.27L421.933,174.971C424.56,171.963 423.441,169.5 419.447,169.5Z" style="fill:rgb(247,207,71);fill-rule:nonzero;"/>
    </g>
    <g transform="matrix(2.46312,0,0,2.50123,-769.156,-174.413)">
        <path d="M479.059,138.507L458.873,138.507C455.701,138.507 454.386,136.251 455.953,133.491L470.445,107.957C472.009,105.201 470.697,102.943 467.523,102.943L449.26,102.943C446.089,102.943 442.645,105.394 441.605,108.391L428.078,147.475C427.04,150.472 428.787,152.925 431.96,152.925L446.378,152.925C449.551,152.925 451.104,155.303 449.831,158.211L434.27,193.78C432.999,196.685 433.664,197.111 435.752,194.718L481.034,142.854C483.118,140.464 482.229,138.507 479.059,138.507Z" style="fill:rgb(247,207,71);fill-rule:nonzero;"/>
    </g>
</svg>
