<?xml version="1.0" encoding="UTF-8" standalone="no"?>
<!DOCTYPE svg PUBLIC "-//W3C//DTD SVG 1.1//EN" "http://www.w3.org/Graphics/SVG/1.1/DTD/svg11.dtd">
<svg width="100%" height="100%" viewBox="0 0 500 500" version="1.1" xmlns="http://www.w3.org/2000/svg" xmlns:xlink="http://www.w3.org/1999/xlink" xml:space="preserve" xmlns:serif="http://www.serif.com/" style="fill-rule:evenodd;clip-rule:evenodd;stroke-linejoin:round;stroke-miterlimit:2;">
    <g transform="matrix(2.45721,0,0,2.49312,-766.296,-1135.89)">
        <path d="M485.879,657.771L341.535,657.771C309.414,681.769 282.583,708.628 312.207,628.443L312.207,484.1C285.175,429.505 325.337,454.771 341.535,454.771L485.879,454.771C502.076,454.771 539.646,424.641 515.206,484.1L515.206,628.443C515.206,644.641 532.441,680.292 485.879,657.771Z" style="fill:rgb(39,170,225);fill-rule:nonzero;"/>
    </g>
    <g transform="matrix(2.45721,0,0,2.46458,-766.296,-1123.13)">
        <path d="M468.152,559.866C468.152,556.675 465.562,554.112 462.37,554.112L364.502,554.112C359.91,554.112 356.177,550.324 356.177,545.761C356.177,541.142 359.91,537.409 364.502,537.409C367.694,537.409 370.284,534.844 370.284,531.652C370.284,528.461 367.694,525.846 364.502,525.846C353.536,525.846 344.616,534.762 344.616,545.761C344.616,556.705 353.536,565.62 364.502,565.62L462.37,565.62C465.562,565.62 468.152,563.059 468.152,559.866Z" style="fill:white;fill-rule:nonzero;"/>
    </g>
    <g transform="matrix(2.45721,0,0,2.46458,-766.296,-1123.13)">
        <path d="M428.068,542.552L473.934,542.552C477.125,542.552 479.714,539.937 479.714,536.744C479.714,533.547 477.125,530.987 473.934,530.987L428.068,530.987C423.475,530.987 419.743,527.255 419.743,522.636C419.743,518.073 423.475,514.284 428.068,514.284C431.259,514.284 433.85,511.722 433.85,508.53C433.85,505.336 431.259,502.724 428.068,502.724C417.099,502.724 408.182,511.692 408.182,522.636C408.182,533.633 417.099,542.552 428.068,542.552Z" style="fill:white;fill-rule:nonzero;"/>
    </g>
    <g transform="matrix(2.45721,0,0,2.46458,-766.296,-1123.13)">
        <path d="M475.014,577.182L394.488,577.182C383.52,577.182 374.602,586.101 374.602,597.098C374.602,608.041 383.52,617.01 394.488,617.01C397.68,617.01 400.27,614.397 400.27,611.203C400.27,608.012 397.68,605.449 394.488,605.449C389.896,605.449 386.163,601.66 386.163,597.098C386.163,592.479 389.896,588.746 394.488,588.746L475.014,588.746C478.206,588.746 480.796,586.187 480.796,582.988C480.796,579.797 478.206,577.182 475.014,577.182Z" style="fill:white;fill-rule:nonzero;"/>
    </g>
</svg>
